<?xml version="1.0" encoding="UTF-8" standalone="no"?>
<svg
    xmlns:dc="http://purl.org/dc/elements/1.1/"
    xmlns:cc="http://creativecommons.org/ns#"
    xmlns:rdf="http://www.w3.org/1999/02/22-rdf-syntax-ns#"
    xmlns:svg="http://www.w3.org/2000/svg"
    xmlns="http://www.w3.org/2000/svg"
    xmlns:sodipodi="http://sodipodi.sourceforge.net/DTD/sodipodi-0.dtd"
    xmlns:inkscape="http://www.inkscape.org/namespaces/inkscape"
    width="340mm"
    height="220mm"
    viewBox="0 0 340 220"
    version="1.1"
    id="POLARIS_Logo"
    inkscape:version="1.0"
    sodipodi:docname="Princeton_POLARIS_Logo.svg">

  <sodipodi:namedview
      id="base"
      pagecolor="#ffffff"
      bordercolor="#666666"
      borderopacity="1.0"
      inkscape:pageopacity="0.0"
      inkscape:pageshadow="2"
      inkscape:zoom="0.58912036"
      inkscape:cx="840.5871"
      inkscape:cy="349.91271"
      inkscape:document-units="mm"
      inkscape:current-layer="layer1"
      inkscape:document-rotation="0"
      showgrid="false"
      inkscape:window-width="1920"
      inkscape:window-height="986"
      inkscape:window-x="-11"
      inkscape:window-y="-11"
      inkscape:window-maximized="1"
      fit-margin-top="0"
      fit-margin-left="0"
      fit-margin-right="0"
      fit-margin-bottom="0" />
  <metadata id="metadata5">
    <rdf:RDF>
      <cc:Work rdf:about="">
        <dc:format>image/svg+xml</dc:format>
        <dc:type rdf:resource="http://purl.org/dc/dcmitype/StillImage"/>
        <dc:title>Princeton POLARIS Lab Logo</dc:title>
      </cc:Work>
    </rdf:RDF>
  </metadata>

  <!-- =============================
       LAYER WITH STAR/DIAMOND SHAPE
       (Adapted from the original paths)
       ============================= -->
  <g
      id="StarDiamondShape"
      transform="translate(1350,110)"> 
    <!-- Outer diamond shape (base) -->
    <path
        id="diamond-base"
        d="m -1157.366,-95 
           c -0.085,0 -0.18,0.048 -0.2309,0.114l -34.7399,46.0111
             c -0.1105,0.1351 -0.058,0.3047 0.013,0.4552l 34.6204,75.1149
             c 0.076,0.1198 0.1921,0.1604 0.3373,0.1643
             0.1452,-0.0039 0.2621,-0.0444 0.3374,-0.1643l 34.6203,-75.1149
             c 0.071,-0.1506 0.1237,-0.3201 0.013,-0.4552
             l -34.7397,-46.0111
             c -0.051,-0.0657 -0.1465,-0.1131 -0.231,-0.1136 z"
        style="fill:#3f3f3f; stroke:none;" />

    <!-- Inner accent shape (top half) -->
    <path
       id="accent-top"
       d="m -1157.366,-94
          -0.2219,0.2646v119.1655l0.2219,0.4469
           0.2222,-0.4469v-119.1655z"
       style="fill:#ffffff; stroke:none;" />

    <!-- Inner accent shape (side ribbons) -->
    <path
       id="accent-left-ribbon"
       d="m -1157.5879,-60
          -33.8077,11.63126
          -0.325,0.42542
           0.1339,0.27469
           33.9988,11.15818
           v-0.30588
           l-34.0376,-11.16607
           34.0376,-11.72935
           z"
       style="fill:#ffffff;stroke:none;" />
    <path
       id="accent-right-ribbon"
       d="m -1157.1438,-60
           33.8076,11.63126
           0.3247,0.42543
           -0.1339,0.27468
           -33.9984,11.15818
           v-0.30588
           l34.0372,-11.16607
           -34.0372,-11.72935
           z"
       style="fill:#ffffff;stroke:none;" />

    <!-- Lower black triangle -->
    <path
       id="triangle-lower"
       d="m -1123.3362,-48
          -33.8076,-44.80537
          v33.17411z"
       style="fill:#000000;stroke:none;" />

    <!-- Small red/pink highlight replaced with Princeton orange -->
    <path
       id="orange-highlight"
       d="m -1157.1439,-59.7
          v29.21373
          a17.50874,17.50874 0 0 0 17.2468,-17.50676
          17.50874,17.50874 0 0 0 -1.115,-6.14792z"
       style="fill:#E87722;stroke:none;" />
  </g>

  <!-- =============================
       TEXT LAYER
       ============================= -->
  <g id="TextLayer" font-family="sans-serif" fill="#000000">
    <!-- Main Title: POLARIS -->
    <text
       id="POLARIS_Text"
       x="50"
       y="100"
       font-size="36"
       font-weight="bold"
       style="text-anchor: start;">POLARIS Lab</text>

  </g>
</svg>