<?xml version="1.0" encoding="UTF-8"?>
<svg id="Layer_2" xmlns="http://www.w3.org/2000/svg" viewBox="0 0 104.12 105.86">
  <defs>
    <style>.cls-1{fill:#000;}</style>
  </defs>
  <g id="blue_trans">
    <g>
      <polygon class="cls-1" points="10.34 42.2 10.34 47.28 12.91 47.28 12.91 53.01 5.69 42.37 .44 42.37 .44 63.27 6.24 63.27 6.24 53.07 13.35 63.27 18.54 63.27 18.54 47.28 19.16 47.28 19.16 63.27 24.96 63.27 24.96 47.28 28.13 47.28 28.13 42.2 10.34 42.2"/>
      <path class="cls-1" d="M28.73,42.2h5.52v14.57l5.69-14.57h4.37l8.8,20.96h-6.29l-1.2-2.89h-6.72l-1.2,3h-8.97v-21.07m11.59,13.43h3.61l-1.86-5.08-1.75,5.08"/>
      <g>
        <path class="cls-1" d="M51.11,0C28.49,0,9.19,14.15,1.58,34.07,8.91,17.07,25.83,5.16,45.54,5.16c26.42,0,47.84,21.39,47.84,47.76s-21.42,47.77-47.84,47.77c-19.71,0-36.63-11.9-43.96-28.9,7.61,19.92,26.91,34.07,49.53,34.07,29.27,0,53.01-23.7,53.01-52.93S80.39,0,51.11,0Z"/>
        <path class="cls-1" d="M43.45,7.3C24.04,7.3,7.47,19.44,.94,36.54,7.23,21.95,21.75,11.73,38.67,11.73c22.68,0,41.06,18.36,41.06,41s-18.38,41-41.06,41c-16.92,0-31.44-10.22-37.73-24.81,6.53,17.09,23.1,29.24,42.51,29.24,25.13,0,45.5-20.34,45.5-45.43S68.58,7.3,43.45,7.3Z"/>
        <path class="cls-1" d="M36.92,13.75C20.26,13.75,6.05,24.17,.44,38.84c5.39-12.52,17.85-21.28,32.37-21.28,19.45,0,35.22,15.75,35.22,35.17s-15.77,35.17-35.22,35.17c-14.51,0-26.97-8.77-32.37-21.28,5.61,14.66,19.82,25.08,36.47,25.08,21.56,0,39.03-17.45,39.03-38.97S58.47,13.75,36.92,13.75Z"/>
        <path class="cls-1" d="M31.4,19.17c-14.34,0-26.58,8.97-31.4,21.6,4.64-10.78,15.37-18.32,27.87-18.32,16.75,0,30.33,13.56,30.33,30.28s-13.58,30.28-30.33,30.28C15.37,83.01,4.65,75.46,0,64.68c4.83,12.63,17.06,21.6,31.4,21.6,18.56,0,33.61-15.02,33.61-33.56S49.96,19.17,31.4,19.17Z"/>
      </g>
    </g>
  </g>
</svg>